<?xml version="1.0" encoding="UTF-8" standalone="no"?>
<!DOCTYPE svg PUBLIC "-//W3C//DTD SVG 1.1//EN" "http://www.w3.org/Graphics/SVG/1.1/DTD/svg11.dtd">
<svg width="100%" height="100%" viewBox="0 0 24 24" version="1.1" xmlns="http://www.w3.org/2000/svg" xmlns:xlink="http://www.w3.org/1999/xlink" xml:space="preserve" xmlns:serif="http://www.serif.com/" style="fill-rule:evenodd;clip-rule:evenodd;stroke-linejoin:round;stroke-miterlimit:2;">
    <g transform="matrix(1.000734,0,0,1.143402,-0.005523,-1.143402)">
        <path d="M23.08,15.33L15,2.57C14.32,1.59 13.19,1 12,1C10.81,1 9.68,1.58 8.97,2.6L0.93,15.31C-0.09,16.77 -0.28,18.52 0.43,19.87C1.13,21.22 2.6,21.99 4.44,21.99L19.56,21.99C21.41,21.99 22.87,21.22 23.57,19.87C24.27,18.52 24.08,16.78 23.08,15.33ZM11,7C11,6.45 11.45,6 12,6C12.55,6 13,6.45 13,7L13,13C13,13.55 12.55,14 12,14C11.45,14 11,13.55 11,13L11,7ZM12,19C11.17,19 10.5,18.33 10.5,17.5C10.5,16.67 11.17,16 12,16C12.83,16 13.5,16.67 13.5,17.5C13.5,18.33 12.83,19 12,19Z" style="fill:white;fill-rule:nonzero;"/>
    </g>
</svg>
