<?xml version="1.0" encoding="UTF-8"?>
<svg id="Capa_1" xmlns="http://www.w3.org/2000/svg" version="1.1" viewBox="0 0 221 221">
  <!-- Generator: Adobe Illustrator 29.6.1, SVG Export Plug-In . SVG Version: 2.1.1 Build 9)  -->
  <defs>
    <style>
      .st0 {
        fill: #fff;
      }
    </style>
  </defs>
  <path class="st0" d="M74.35,182.87c-.56-.29-1.39-1.89-1.03-2.6.37-.71,2.1-1.24,2.65-.94.56.3,1.39,1.89,1.03,2.58-.36.69-2.07,1.28-2.66.96h0ZM61.53,178.12l-1.38-1.11,3.87-4.83c1.2-1.5.89-2.64-.47-3.74-.87-.7-1.91-.68-2.81.45l-4.17,5.21-1.33-1.07,3.93-4.91c1.56-1.95,3.55-2.13,5.72-.39,1.87,1.51,2.29,3.32.85,5.12l-4.21,5.27h0ZM54.15,157.13l-2.16,9.07,5.54-4.94,1.08,1.22-7.44,6.63-1.19-1.34,2.16-8.71-5.51,4.91-1.06-1.2,7.36-6.56,1.22.93h0ZM49.63,151.2l.98,1.5-8.31,5.49-.98-1.5,8.31-5.49h0ZM38.99,153.15l-1.09-1.51,6.11-6.26-8.44,1.09-.81-1.63,10.53-.99,1.03,1.45-7.34,7.85h0ZM33.03,140.66l-1.93-5.96,1.31-.25c.42,1.36.84,2.75,1.26,4.11l2.82-.92-1.22-3.78,1.19-.2,1.11,3.62,3.12-1.02-1.49-4.51,1.35-.27,1.95,6.07-9.47,3.09h0ZM35.23,127.17l4.05-.78.33,1.77-9.77,1.88-.64-3.37c-.39-2.13.2-3.53,1.83-3.84,1.2-.24,2.42.25,3.12,1.25l4.04-3.46.39,1.98-3.7,2.85c.09.26.16.53.22.81.01.22.06.57.12.91ZM31.88,124.53c-1.17.22-1.67,1.01-1.39,2.49.07.36.14.7.21,1.02l3.31-.64c-.04-.44-.11-.88-.19-1.31-.18-.95-.77-1.79-1.95-1.56h0ZM30.51,117.89c-1.56.06-2.8-1.43-2.88-3.59-.05-1.03.04-2.05.27-3.05l1.45.27c-.33,1.03-.49,2.12-.45,3.2.03.92.48,1.56,1.27,1.52.79-.04,1.22-.64,1.78-2.27.9-2.58,1.63-3.14,2.92-3.19,1.77-.07,3.06,1.54,3.16,4.11.03.99-.08,1.99-.31,2.95l-1.51-.29c.38-1.1.55-2.26.5-3.43-.03-.88-.51-1.68-1.3-1.64-.85.03-1.36.5-2,2.38-.71,2.09-1.37,2.97-2.91,3.03h0ZM28.06,104.79l-.11,1.79,9.92.63.11-1.79-9.92-.63h0ZM29.18,95.96c.57-3.03,2.6-4.65,5.53-4.09,3.29.63,4.71,3.51,4.09,6.77l-.49,2.6-9.78-1.87.65-3.41h0ZM37.34,99.24c.12-.43.27-1.11.39-1.71.3-1.56-.31-3.26-3.06-3.79-2.59-.5-3.97.98-4.36,3.03l-.21,1.08,7.24,1.39ZM40.14,83.79l-1.39,3.66,2.2,1.87-.63,1.66-7.89-7.15.43-1.82,10.83.06-.67,1.77-2.89-.05ZM34.26,83.66l3.43,2.91,1.06-2.8s-4.5-.11-4.5-.1ZM37.96,71.37c1.5-2.69,3.93-3.59,6.53-2.12,2.93,1.64,3.37,4.82,1.76,7.72l-1.29,2.32-8.69-4.88s1.69-3.03,1.69-3.03ZM44.68,77.07c.25-.39.61-.97.91-1.5.78-1.39.72-3.19-1.72-4.57-2.3-1.29-4.08-.32-5.09,1.49l-.53.96s6.44,3.62,6.44,3.62ZM62.97,56.42l-13.27-2.86,7.38,7.96-1.74,1.62-9.9-10.69,1.91-1.79,12.74,2.87-7.34-7.92,1.72-1.61,9.8,10.58s-1.3,1.83-1.3,1.83ZM74.24,43.53l-4.97,2.8.72,4.17-2.25,1.27-2.18-15.46,2.18-1.64,12.08,10.3-2.41,1.35-3.18-2.79h0ZM67.78,37.83l1.13,6.51,3.81-2.14-4.94-4.37ZM93.68,39.56c-.85.88-2.6,1.87-4.17,2.34-4.01,1.2-7.66-.35-9.05-5.07-1.29-4.37.7-8.3,5.19-9.64,1.73-.52,3.32-.68,4.07-.57v2.15c-1.43-.07-2.87.1-4.25.49-1.99.6-3.71,2.42-2.53,6.42,1.25,4.22,4.29,4.81,6.75,4.08,1.12-.33,2.14-.91,2.99-1.7l.99,1.5h0ZM101.13,39.15l-2.58.37-2.02-14.47,2.58-.37,2.02,14.47h0ZM112.81,38.96c-3.9-.25-6.47-3.07-6.18-7.72.32-4.97,3.76-7.68,8.35-7.39,3.9.25,6.47,3.12,6.17,7.74-.31,4.94-3.75,7.65-8.34,7.36ZM113.83,25.71c-2.28-.14-4.21,1.2-4.45,5.01-.27,4.35,1.63,6.2,4.56,6.39,2.31.15,4.24-1.17,4.48-5.04.27-4.3-1.64-6.16-4.59-6.35v-.02ZM135.23,43.44l-3.95-13.05-3.35,10.35-2.26-.74,4.49-13.9,2.48.81,3.7,12.59,3.33-10.29,2.23.73-4.45,13.75-2.23-.25h0ZM151.87,47.2l-4.83-3.03-3.29,2.65-2.19-1.38,12.42-9.35,2.48,1.13-3.15,15.59-2.34-1.47.9-4.15h0ZM153.72,38.77l-5.12,4.13,3.7,2.34,1.42-6.47h0ZM166.9,45.18l1.87,1.84-8.83,9.09,4.61,4.4-1.58,1.24-6.22-6.1,10.16-10.46h0ZM179.72,67.5c1.62,2.61,1.24,5.19-1.3,6.78-2.84,1.78-5.82.64-7.57-2.18l-1.4-2.25,8.44-5.29,1.83,2.94h0ZM171.53,70.67c.2.39.55,1,.87,1.52.84,1.35,2.43,2.18,4.81.69,2.24-1.4,2.25-3.43,1.17-5.2l-.58-.93s-6.27,3.92-6.27,3.92ZM184.66,76.47l2.34,5.8-1.28.35-1.56-4.01-2.73,1.12,1.5,3.69-1.17.28-1.37-3.54-3.05,1.25,1.85,4.38-1.32.37-2.4-5.91,9.19-3.78h0ZM182.3,102.53c-.63-.91-1.04-1.95-1.22-3.04-.47-2.84.9-5.2,4.2-5.75,3.07-.51,5.55,1.17,6.07,4.37.19.93.2,1.89.03,2.83l-1.45-.19c.17-.97.18-1.97.03-2.94-.23-1.41-1.31-2.73-4.12-2.27-2.97.49-3.62,2.53-3.33,4.26.12.79.43,1.54.89,2.19l-1.1.55h0ZM182.01,109.55c-.04-2.69,1.75-4.6,4.91-4.64,3.39-.05,5.41,2.18,5.46,5.34.04,2.69-1.76,4.6-4.93,4.64-3.38.04-5.4-2.19-5.44-5.34h0ZM191.05,109.55c0-1.56-1.03-2.82-3.63-2.79-2.96.04-4.12,1.44-4.1,3.46,0,1.59,1.01,2.84,3.65,2.81,2.95-.04,4.1-1.47,4.08-3.48ZM191.79,119.84l-.25,1.78-8.57-1.21-.54,4.33-1.32-.38.83-5.92,9.85,1.38h0ZM179.29,131.11c.78-2.59,3.03-3.87,6.07-2.96,3.25.97,4.52,3.7,3.62,6.73-.78,2.58-3.05,3.86-6.09,2.95-3.24-.96-4.51-3.69-3.6-6.72ZM187.92,133.82c.45-1.51-.15-3.01-2.64-3.75-2.84-.85-4.37.14-4.94,2.08-.45,1.53.12,3.02,2.65,3.78,2.82.84,4.35-.17,4.92-2.11h0ZM182.75,144.86l-6.47-4.26.78-1.48,8.23,5.77-.88,1.68-8.47-.98,5.63,6.38-.88,1.68-9.37-3.61.82-1.55,7.19,2.93-5.27-5.98.04-.07h-.02s.5-1.5.5-1.5l8.17.99h0ZM177.08,159.08l-1.95,2.58c-1.32,1.73-2.73,2.17-3.9,1.25-.89-.68-1.05-1.71-.88-2.71-.82.78-2.08,1.35-3.26.45-1.41-1.09-1.34-3.12.35-5.33l1.77-2.32,7.86,6.08h0ZM167.99,159.1c.92.71,1.98.34,2.95-.92.21-.28.48-.66.74-1l-2.56-1.97c-.35.43-.78.95-1.17,1.45-.63.84-.86,1.75.05,2.44h0ZM171.83,161.2c.84.65,1.67.57,2.69-.78.12-.16.32-.42.49-.67l-2.45-1.89c-.22.29-.47.59-.66.83-.95,1.23-.76,1.98-.07,2.51h0ZM161.06,162.62l1.25-1.29,7.12,6.98-1.25,1.29-7.12-6.98ZM155.53,171.14l3.04-2.46-.96-2.73,1.38-1.12,3.21,10.18-1.29,1.35-9.32-5.56,1.47-1.17,2.47,1.49ZM160.54,174.26l-1.51-4.29-2.34,1.88,3.84,2.4ZM146.01,182.79c-.57.28-2.34.03-2.69-.68-.35-.71.22-2.44.78-2.73.56-.29,2.34-.03,2.68.67.35.7-.18,2.44-.77,2.74h0ZM93.36,193.12l1.56-8.18c-.86.27-1.88.55-2.63.78l-.29-1.43c1.04-.24,2.57-.6,3.68-.89l1.24.24-1.87,9.82-1.7-.34h0ZM99.34,191.38c.1-1.61,1.42-2.53,2.9-3.31-1.31-.86-2.07-1.75-1.95-3.27.11-1.75,1.8-3.1,4.31-2.93,1.76.11,3.26,1.19,3.15,2.9-.08,1.31-1.1,2.26-2.68,3.12,2.16,1.2,2.84,2.06,2.73,3.59-.12,1.87-2.01,3.47-4.8,3.29-2.26-.14-3.77-1.4-3.66-3.38h0ZM106.09,191.83c.07-1.14-.33-1.8-2.71-3.1-1.33.78-2.18,1.25-2.25,2.45-.08,1.3,1.03,2.15,2.6,2.25,1.38.09,2.29-.59,2.36-1.61h0ZM103.93,187.26c1.24-.64,2.08-1.32,2.14-2.28.05-.85-.69-1.74-2.18-1.84-1.25-.08-1.82.48-1.89,1.54-.04.92.38,1.66,1.93,2.58ZM110.88,190.69c-.2-3.26,1.63-6.42,5.72-8.93l.91,1.21c-2.37,1.4-3.9,2.95-4.54,4.79.72-.5,1.57-.8,2.45-.87,2.39-.15,3.79,1.38,3.9,3.39.15,2.38-1.47,4.42-4.14,4.6-2.39.16-4.12-1.47-4.29-4.18ZM117.59,190.94c-.09-1.36-.84-2.71-2.79-2.58-.77.01-1.52.27-2.13.75-.04.41-.05.82-.02,1.23.11,1.81.96,3.25,2.96,3.12,1.39-.1,2.07-1.09,1.98-2.51h0ZM123.6,195.9c.51-2.44,1.95-8.48,2.83-11.3l-6.24,1.2-.02-1.64,7.8-1.5.25,1.31c-.67,2.24-2.27,9.35-2.73,12.18l-1.89-.25h0Z"/>
  <path class="st0" d="M147.39,94.69c0-3.86-1.83-7.15-4.77-8.57l-.27-.13.13.27c.07.18.11.37.09.56,0,.95-.55,1.86-1.17,2.92-.95,1.56-2.13,3.55-2.13,6.63,0,4.42,2.58,8.83,6.28,10.74l.24.12-.1-.25c-.19-.5-.29-1.03-.29-1.56,0-1.73.48-3.42.99-5.21.51-1.79,1.01-3.64,1.01-5.51h0ZM142.72,89.35c-.43,1.96-.71,3.94-.85,5.94-.04,1.54.06,3.07.3,4.59l.15.76.05-.78c.1-1.6.26-3.21.39-4.56.17-2.07.47-4.14.9-6.17.26,1.41.39,2.85.39,4.29,0,2.97-.2,5.93-.6,8.87.99-3.31,1.61-6.71,1.61-8.87,0-1.53-.13-3.06-.39-4.57,1.16,1.72,1.75,3.76,1.69,5.83,0,1.77-.51,3.51-1,5.22s-1.02,3.51-1.01,5.35c-2.73-2.42-4.11-5.42-4.11-8.91.02-2.27.88-4.26,2.48-6.97h0ZM126.26,80.08c.04,1.18.56,2.29,1.44,3.09l.14.12.03-.18c.2-1.25,2.23-2.93,4.84-3.33h.02l.02-.02c1.95-1.5,2.8-4.25,2.8-6.3,0-2.79-1.36-4.7-2.67-6.54-.7-.92-1.31-1.9-1.84-2.93.46.17.95.25,1.44.23,1.61.05,2.96-1.22,3.01-2.83,0-.05,0-.09,0-.14,0-2.24-1.82-3.87-4.32-3.87-3.15,0-6.33,2.73-6.33,8.84,0,1.52.27,6.75,3.73,10.79-1.38.37-2.34,1.63-2.33,3.06ZM131.97,62.78c.52-.49.55-1.32.05-1.84-.07-.07-.14-.13-.22-.19-.22-.15-.47-.22-.73-.22-.83,0-1.41.66-1.41,1.61,0,1.72,1.09,3.29,2.23,4.96,1.32,1.92,2.69,3.9,2.69,6.39,0,1.42-.4,2.82-1.14,4.03.18-4.35-1.1-6.5-2.34-8.57-.69-1.17-1.59-2.3-2.05-3.86.29,1.58.81,3.1,1.56,4.52.94,1.98,1.91,4.02,1.71,7.88-4.87-8.25-4.93-12.67-4.44-15.61l.13-.78-.33.72c-1.56,3.45-.28,8.97,3.77,16.42-1.56-.23-2.83.32-3.36,1.5l-.18.39.33-.26c.81-.64,1.88-.83,2.86-.51-1.92.48-2.83,1.3-3.53,2.36-.31-.47-.46-1.02-.44-1.58,0-1.31.93-2.23,2.63-2.61l.16-.04-.11-.12c-2.63-3.09-4.09-7.02-4.09-11.08,0-5.46,2.81-7.93,5.42-7.93,2.01,0,3.31,1.17,3.31,2.96.05,1.14-.84,2.11-1.98,2.16,0,0-.02,0-.02,0-.52.03-1.03-.07-1.5-.29.37,0,.73-.14,1-.39h0ZM138.92,83.5h.04c1.5,0,2.91,1.01,4.41,2.07,1.69,1.2,3.44,2.44,5.53,2.44s3.82-1.47,3.82-3.42c.03-.86-.28-1.69-.86-2.31-.59-.62-1.4-.99-2.26-1-1.02,0-1.74.52-1.89,1.34-.45-.49-.99-.89-1.59-1.17,2.2-1.28,3.41-3.75,3.08-6.28v-.05l-.05-.02c-.69-.24-1.42-.35-2.15-.31-1.29.03-2.55.43-3.61,1.17-.03-1.19-.31-2.37-.82-3.45-.4-.8-.62-1.68-.64-2.58,0-.57.09-1.13.24-1.68l.04-.13h-.14c-2.86.05-5.82,3.07-5.82,8.03,0,2.59,1.06,5.52,2.64,7.3l.02.04h0ZM140.75,69.29l.1-.04c.09-.03.19-.07.28-.09-.07.34-.11.69-.11,1.03.04.82.24,1.63.6,2.37.52,1.13.79,2.36.8,3.6.03.7-.05,1.4-.24,2.08l-.21.62.39-.53c1.29-1.77,2.88-2.67,4.74-2.67.41,0,.81.04,1.21.13.09,1.89-.96,4.36-4.16,5.69l-.34.14.36.06c1.23.15,2.36.73,3.19,1.66.46.46.86.85,1.56.85.32.01.64-.11.87-.34.23-.23.35-.54.34-.86,0-.28-.12-.56-.33-.74-.05-.04-.1-.08-.16-.11,1.31,0,2.09,1.26,2.09,2.46,0,1.45-1.17,2.51-2.81,2.51s-3.37-1.14-4.99-2.25c-.78-.56-1.6-1.07-2.44-1.54,1.14-.04,2.27.24,3.26.81l.23.14c2.15,1.37,4.01,2.56,5.38.89l.55-.67-.69.52c-1.17.89-2.34.12-4.06-1.03-.33-.22-.67-.45-1.04-.68-1.1-.69-2.7-.8-3.57-.82,1.6-.85,3.05-1.97,4.29-3.3l.39-.47-.53.32c-.39.23-.78.48-1.17.73-1.1.69-2.23,1.4-3.41,2.03,1.22-1.66,3.34-3.53,5.65-4.95l.63-.39-.71.2c-2.2.62-4.64,2.73-6.29,4.63.34-1.42.88-4.21.65-6.7l-.08-.85-.12.84c-.32,2.17-.78,4.32-1.38,6.44-.53-3.29-.36-6.65.52-9.86l.17-.63-.35.54c-1.4,2.16-1.8,5.38-1.27,10.11-.81-1.56-1.25-3.28-1.3-5.03-.02-3.45,1.28-5.96,3.53-6.88h0ZM107.69,83.8c.39,0,.73-.35,1.05-1.07l.14-.32-.29.2c-.09.06-.14.09-.19.12.09-.12.17-.25.23-.39l.14-.27-.27.14c-.85.43-1.21.78-1.21,1.25,0,.16.1.3.25.34.05.01.1.02.15.01h0Z"/>
  <path class="st0" d="M151.52,105.93c-.64-.64-1.52-.99-2.42-.95-1.25.05-2.06.78-2.06,1.86-.02.39.12.77.39,1.05.27.28.63.45,1.02.46.13,0,.26-.01.39-.04-.46.53-1.35.59-1.75.59-2.5,0-4.9-1.71-6.13-4.36l-.13-.27-.07.3c-.21,1.03-.32,2.07-.3,3.12,0,2.46.71,4.51,2.06,5.94,1.21,1.29,2.91,2.01,4.68,1.99,3.38,0,5.85-2.45,5.85-5.82.03-1.44-.52-2.83-1.52-3.86h0ZM147.15,112.81c1.7,0,3.12-1.1,3.66-2.88l.28-.9-.47.82c-.78,1.35-1.84,1.95-3.47,1.95-2.05,0-4.15-1.68-5.04-3.97,1.24,1.1,2.73,2.06,4.99,2.06,1.83,0,3.12-1.05,3.12-2.56.06-.74-.48-1.41-1.22-1.5h.11c1.63,0,2.91,1.74,2.91,3.96.03,1.29-.47,2.54-1.38,3.45-.92.91-2.17,1.41-3.46,1.37-3.02,0-5.13-2.08-5.73-5.61,1.31,2.43,3.36,3.8,5.7,3.8h0ZM105.89,114.95c1.03-.74.78-1.5.43-2.14l-1.38-2.97h-.36l1.04,3.02c-.04.13-.08.26-.13.39-.15.28-.21.61-.16.93-.37-.09-.77-.05-1.11.12-.22.09-.46.15-.71.16h-.23l.15.17c.45.51.87.78,1.32.78.41-.03.81-.2,1.12-.47Z"/>
  <path class="st0" d="M103.79,113.76c.16.11.34.17.53.17.12,0,.23-.02.34-.07.27-.14.56-.31.56-.69,0-.78-.74-1.37-1.4-1.67v-3.45h-.35v.1c-.1,1.81-.16,2.81-.2,3.41-.04.6-.05.81-.05,1.01-.02.47.2.92.58,1.2ZM109.9,111.86c1.09,0,2.12-.69,2.34-1.56l1.91-2.86h-.44l-2.02,2.63-.34.14c-.58.23-1.17.48-1.44.83-.24-.35-.84-.59-1.42-.82l-.39-.15-2.02-2.63h-.44l1.91,2.76c.3,1.04,1.29,1.73,2.37,1.66h0ZM107.31,115.94c.39-.37.62-.89.63-1.43-.05-.45-.28-.85-.64-1.13l-.17-.15v.21c-.04.26-.13.5-.28.72-.22.3-.32.68-.3,1.05-.36,0-.72.12-1.01.34-.21.15-.46.25-.72.3h-.2l.12.16c.24.39.66.65,1.11.71h.05c.45.01.92-.25,1.4-.78Z"/>
  <path class="st0" d="M109.9,110.25c.97,0,1.86-.57,2.25-1.47l1.38-2.55h-.43l-1.32,2.15-.39.15c-.58.23-1.23.48-1.51.9-.26-.41-.91-.66-1.49-.89-.14-.05-.28-.11-.39-.16l-1.42-2.13h-.43l1.49,2.55c.23.83,1.17,1.45,2.26,1.45ZM130.02,117.53c-.45.02-.9.1-1.33.23-.51.16-1.03.25-1.56.27-2.22,0-3.71-.89-4.83-2.86l-.03-.05h-1.22l-.87,1.2.04.06c.25.41.39.88.39,1.35-.05.54-.19,1.07-.43,1.56-.59,1.31-.88,2.73-.88,4.16,0,2.14.74,3.57,1.34,4.71.41.8.78,1.49.78,2.21-.03.3-.2.57-.46.72l-.07.04.46,1.15h2.03l7.87-12.31c.18-.32.29-.68.31-1.05-.01-.39-.19-.76-.48-1.02-.29-.26-.67-.4-1.06-.38ZM128.01,119.26v2.91l-.65.96v-3.78c.22-.01.43-.04.65-.08ZM128.72,119.12c.15-.04.3-.1.44-.16.11-.06.24-.1.36-.11.07,0,.13.02.19.06.19.13.24.39.13.59l-1.12,1.63v-2h0ZM126.66,119.39v4.84l-.65.96v-5.85c.21.03.43.05.65.05ZM125.3,119.22v6.96l-.7,1.05v-8.26l.14.05c.18.07.37.14.56.19ZM120.79,123.25c0-1.26.22-2.51.67-3.68.3-.77.48-1.58.53-2.4l.5.5v11.16c-.15-.39-.33-.77-.52-1.14-.77-1.36-1.18-2.89-1.18-4.45ZM123.91,118.65v9.64l-.7,1.05v-11.11c.22.15.45.29.69.41,0,0,.01,0,.01,0Z"/>
  <path class="st0" d="M109.9,107.28c.47-.05.83-.44.85-.91-.02-.36-.13-.71-.31-1.01-.09-.17-.17-.34-.24-.51l-.11-1.98h-.39l-.11,1.98c-.08.2-.17.37-.24.51-.19.31-.3.65-.32,1.01.02.47.39.86.85.91Z"/>
  <path class="st0" d="M109.9,108.64c1.07,0,1.59-.74,1.95-1.47l.85-2.44h-.36l-.97,2.04-.28.13c-.45.21-.98.45-1.2.85-.23-.43-.83-.67-1.37-.89l-.21-.09-.86-2.03h-.36l.85,2.44c.23.89,1.04,1.5,1.96,1.48Z"/>
  <path class="st0" d="M112.72,116.65c-.3-.25-.63-.53-1-.44.09-.38.05-.78-.12-1.13-.11-.25-.16-.53-.15-.8l.03-.21-.18.1c-.43.27-.72.72-.78,1.22-.06.37.03.76.26,1.06l-.55.41v-3.02c1-.14,2.09-.83,2.3-1.95l2.2-3.25h-.44l-2.34,2.93-.44.16c-.66.22-1.39.46-1.65.89-.26-.43-1-.67-1.66-.89l-.44-.16-2.34-2.93h-.44l2.21,3.25c.22,1.13,1.3,1.82,2.3,1.95v3.02l-.55-.41c.23-.3.32-.69.26-1.06-.06-.51-.35-.96-.78-1.22l-.18-.1.03.21c.01.28-.04.55-.15.8-.17.35-.21.75-.12,1.13-.39-.1-.78.21-1.1.48-.17.16-.36.3-.57.39l-.19.06.16.12c.78.57,1.51.49,2.28-.25l.62.47-2.05,1.56.84.28,1.49-1.11v1.67l.36.14.35-.14v-1.68l1.59,1.12.84-.28-2.16-1.56.62-.47c.78.75,1.51.83,2.28.25l.16-.12-.19-.05c-.22-.1-.43-.25-.6-.43h0Z"/>
  <path class="st0" d="M140.32,149.55c-.68,0-1.35.14-1.98.39-.92-1.1-2.26-1.75-3.69-1.79-1.74,0-2.82.88-2.82,2.31-.01.54.17,1.07.51,1.49-.72-.31-1.37-.6-2.09-.93-.55-.25-1.13-.51-1.79-.81-2.67-1.2-11.77-5.07-18.25-5.18,3.33-1.73,6.63-2.85,9.82-3.93,3.04-1.03,5.92-2,8.5-3.41,3.28-1.84,5.93-4.64,7.57-8.03,2.05-4.13,3.12-9.62,3.32-16.8v-.11h-.11c-2.39,0-3.51-.78-3.51-2.4,0-1.43.57-2.31,3.41-2.31h.1v-.11c-.03-1.9-.25-3.8-.66-5.66-.4-1.8-.61-3.64-.65-5.49,0-1.84.43-5.52,3.29-9.35l.04-.05-1.17-2.25-.09.03c-1.48.59-3.17-.13-3.76-1.61-.27-.67-.28-1.41-.03-2.08l.02-.08-2.34-1.28-.05.05c-3.73,3.53-7.84,5.39-11.88,5.39-2.94,0-5.84-.77-8.4-2.22l-.08-.05-3.68,5.07-3.69-5.07-.08.05c-2.56,1.44-5.45,2.19-8.39,2.19-4.09,0-8.09-1.81-11.88-5.39l-.06-.05-2.34,1.28.02.08c.35,1.04.11,2.2-.63,3.01-.84.81-2.06,1.07-3.16.68l-.08-.03-1.17,2.25.04.05c2.86,3.86,3.29,7.53,3.29,9.36-.03,1.85-.25,3.68-.64,5.49-.41,1.86-.63,3.75-.66,5.66v.11h.1c2.84,0,3.42.88,3.42,2.31,0,1.64-1.12,2.4-3.51,2.4h-.11v.11c.19,7.18,1.28,12.68,3.32,16.8,1.65,3.39,4.29,6.19,7.57,8.03,2.58,1.41,5.46,2.38,8.49,3.41,3.19,1.08,6.49,2.2,9.82,3.93-6.48.12-15.59,3.98-18.25,5.18l-1.77.78c-.72.33-1.38.63-2.11.94.34-.42.52-.95.51-1.49,0-1.43-1.08-2.31-2.81-2.31-1.43.04-2.77.69-3.69,1.79-.63-.25-1.3-.38-1.98-.39-1.98,0-3.22,1.06-3.22,2.76v4.82c0,2.68,1.98,4.22,5.43,4.22,3.12,0,6.29-1.34,11.23-3.51,6.07-2.69,10.87-4.81,16.98-4.81s10.91,2.12,16.97,4.81c4.94,2.18,8.13,3.51,11.23,3.51,3.45,0,5.43-1.54,5.43-4.22v-4.79c-.01-1.7-1.25-2.76-3.23-2.76h0ZM82.14,102.39c.36-1.92.57-3.86.65-5.81,0-2.96-1.19-6.46-3.2-9.35l.54-1.06c1.23.23,2.49-.17,3.38-1.05.81-.87,1.19-2.05,1.04-3.23l1.13-.58c3.83,3.48,7.89,5.25,12.08,5.25,2.83,0,5.63-.65,8.18-1.88l3.35,4.72v12.36c-1.31.96-3.38,1.56-5.42,1.56-.43,0-.86-.04-1.29-.1h-.06l-1.28,1.56.02.06c.35.93.52,1.93.5,2.92-.01.71-.07,1.41-.19,2.11h-16.54c-.14-1.59-1.36-2.58-3.46-2.8.08-1.56.27-3.12.55-4.66h0s0-.01,0-.01ZM135.24,81.88c-.15,1.18.23,2.36,1.04,3.23.89.88,2.15,1.27,3.38,1.05l.54,1.08c-2,2.9-3.2,6.38-3.2,9.35.07,1.95.29,3.89.65,5.81.29,1.53.47,3.08.56,4.64-2.09.22-3.32,1.21-3.46,2.8h-16.54c-.11-.7-.18-1.4-.19-2.1-.03-1,.14-1.99.5-2.92l.02-.06-1.28-1.56h-.06c-.43.06-.86.09-1.29.1-2.04,0-4.11-.59-5.42-1.56v-12.33l3.35-4.72c2.55,1.23,5.35,1.87,8.18,1.88,4.18,0,8.24-1.77,12.08-5.25l1.13.57h0ZM118.64,140.5c-2.77.92-5.63,1.86-8.14,3.12v-22.15c6.71-2.28,7.98-4.93,7.98-9.01,0-.47-.04-.93-.11-1.39,0-.07,0-.15-.03-.21h16.41c.11,1.17.83,2.55,3.55,2.8-.28,11.8-3.68,19.38-10.39,23.16-2.77,1.54-6.08,2.64-9.28,3.7v-.02h0ZM116.83,104.22l.58.72-.04.16c-.22.86-.34,1.74-.36,2.63.02.82.1,1.63.21,2.44.1.69.16,1.38.19,2.08,0,3.9-1.13,6.12-7.53,8.22-6.4-2.11-7.53-4.33-7.53-8.22.02-.7.09-1.39.19-2.08.12-.81.19-1.62.21-2.44-.01-.89-.13-1.77-.36-2.63l-.04-.16.58-.72h.05c.25.05.5.08.76.08,2.44,0,4.44-.55,6.13-1.69,1.68,1.13,3.69,1.69,6.12,1.69.26,0,.52-.03.78-.08h.03ZM85.04,110.85h16.4l-.02.21c-.07.46-.11.93-.11,1.39,0,4.08,1.28,6.72,7.98,9.01v22.15c-2.51-1.24-5.37-2.19-8.14-3.12-3.2-1.06-6.51-2.15-9.28-3.7-6.71-3.79-10.11-11.36-10.39-23.16,2.72-.23,3.44-1.61,3.56-2.78h0s0,0,0,0ZM81.08,153.56c-1.77,0-3.61-.69-3.61-1.86,0-.61.67-1.26,1.91-1.26.95,0,1.95.46,3.17,1.14.92.52,2.07,1.07,3.21,1.07-1.5.55-3.07.85-4.67.91h0s0,0,0,0ZM82.34,150.37c.72-.8,1.73-1.28,2.81-1.32,1.07,0,1.81.58,1.81,1.4s-.44,1.25-1.17,1.25c-1.08,0-2.43-.74-3.45-1.33h0ZM109.9,146.04c5.07,0,12.95,2.75,18.18,5.11,4.29,1.95,7.58,3.32,10.63,3.32,2.18,0,3.17-.54,3.81-1.12v3.75c0,2.04-1.61,3.21-4.42,3.21s-6.13-1.37-10.85-3.45c-6.63-2.95-11.4-4.88-17.36-4.88s-10.75,1.93-17.36,4.88c-4.86,2.15-8.02,3.45-10.85,3.45s-4.42-1.17-4.42-3.21v-3.73c.64.58,1.64,1.12,3.81,1.12,3.06,0,6.33-1.38,10.63-3.32,5.23-2.37,13.13-5.13,18.18-5.13h0s0,0,0,0ZM134.06,152.66c1.14,0,2.28-.55,3.21-1.07,1.21-.69,2.21-1.14,3.16-1.14,1.24,0,1.91.65,1.91,1.26,0,1.17-1.84,1.86-3.61,1.86-1.6-.05-3.18-.35-4.69-.89h.02s0,0,0,0ZM132.85,150.45c0-.83.74-1.4,1.81-1.4,1.08.04,2.09.52,2.81,1.32-1.02.58-2.37,1.33-3.46,1.33-.73,0-1.17-.47-1.17-1.23l.02-.02Z"/>
  <path class="st0" d="M135.48,145.24c0,.78.64,1.31,1.56,1.31.56,0,1.09-.23,1.47-.64.38-.41.58-.96.54-1.52,0-2.97-3.27-5.46-7.13-5.46-2.54,0-4.91.96-7.92,2.16-1.87.75-3.99,1.61-6.52,2.36l-.18.05.15.12c2.92,2.41,5.91,3.64,8.9,3.64s5.09-1.14,6.9-2.05c1.15-.59,2.09-1.06,2.85-1.07-.39.22-.63.64-.61,1.09h0ZM132.18,143.09c-1.95.82-4.99,1.2-6.99,1.2-.45,0-1.82-.02-2.88-.06,1.98-.27,3.93-.69,5.85-1.27,2.51-.7,4.68-1.31,7.08-.92l.81.13-.75-.32c-.98-.35-2.01-.52-3.05-.51-1.65,0-3.51.46-5.5.95-1.86.52-3.77.87-5.7,1.04.96-.34,2.01-.78,3.12-1.22,2.73-1.12,5.54-2.28,7.8-2.28,2.47,0,6.12,1.46,6.12,4.62v.05c-.27-.84-1.01-1.26-2.21-1.26-.96,0-2.05.55-3.33,1.17-1.77.88-3.77,1.88-6.16,1.88-1.66-.02-3.31-.39-4.82-1.08,3.22.11,6.79,0,10.63-2.12h-.01s0,.01,0,.01ZM114.26,115.66c-.29-.24-.66-.37-1.03-.36.03-.37-.07-.74-.28-1.04-.15-.24-.25-.5-.29-.78v-.25l-.17.18c-.84.84-.84,1.71,0,2.65.33.44.82.71,1.36.76.47-.04.9-.28,1.17-.66l.14-.17h-.22c-.25-.05-.48-.17-.68-.33Z"/>
  <path class="st0" d="M138.92,125.58l-.11-.08-.04.13c-.31.95-.56,1.95-.78,2.91-.85,3.46-1.66,6.74-5.21,7.66l-.11.03.05.11c.67,1.56,2.57,2.27,4.06,2.27,1.66,0,3.27-.83,3.97-2.01.19.74.44,1.47.74,2.17.31.63.51,1.3.6,2,.02.18,0,.37-.06.54-.25-.51-.78-.81-1.34-.78-.82.03-1.48.69-1.51,1.51,0,1.24,1.03,2.11,2.51,2.11,2.55,0,5.12-2.14,5.12-6.93-.02-4.28-2.36-7.77-7.89-11.64h0ZM140.77,131.59v.25c.02,2.19-.45,3.79-1.4,4.75-.69.69-1.64,1.05-2.61,1.02-.89-.02-1.76-.32-2.47-.87,2.3-.96,3.76-3.4,4.68-7.87.49,2.79-.7,6.26-2.18,7.56l-.39.33.48-.16c2.22-.74,3.39-4.57,3.25-7.84,2.2,3.12,3.48,7.41,3.94,10.42l.13.85.07-.86c.27-3.34-.78-6.99-3.02-10.58,2.8,2.21,4.52,5.46,4.52,8.61,0,2.63-.98,4.74-2.62,5.63-.61.36-1.33.46-2.02.29.37,0,.73-.13,1.02-.35.58-.48.9-1.2.86-1.95,0-.78-.29-1.52-.66-2.44-.57-1.39-1.49-2.93-1.56-6.17l-.05-.62h.03s0,0,0,0ZM90.57,122.65c0-1.56.58-2.18,2.06-2.21v.67c.04,1.38-.03,2.76-.2,4.13-.24,1.59-.89,2.07-1.87,2.81l-.14.1,1.3,1.41.08-.07c1.43-1.23,2.09-2.36,2.34-4.03.18-1.44.25-2.89.2-4.34v-.69h2.9c-.19,3.37-.19,4-.19,5.82,0,2,.88,3.01,2.61,3.01.57.02,1.13-.12,1.61-.42l.05-.03v-1.56l-.14.06c-.33.17-.69.25-1.06.24-.63,0-1.35-.19-1.35-1.7v-.69c0-.97,0-1.75.15-4.73h2.28v-1.61h-8.3c-2.56,0-3.78,1.02-4.07,3.4v.09l1.77.46v-.14s-.01,0-.01,0ZM115.45,114.37c-.32-.16-.69-.21-1.05-.14.06-.34.02-.68-.12-1-.04-.12-.08-.24-.11-.37l1.04-2.93h-.36l-1.38,2.97c-.49.74-.39,1.47.23,1.95l.03.02.07.05c.36.27.79.43,1.24.46.51-.03.98-.27,1.31-.67l.17-.18h-.25c-.28,0-.56-.07-.82-.18Z"/>
  <path class="st0" d="M115.97,111.5c-.46.27-1.4.92-1.4,1.66,0,.36.23.68.57.8.09.03.18.04.27.04.21,0,.41-.07.58-.2.39-.3.6-.76.59-1.25,0-.21,0-.42-.06-1.04-.05-.62-.1-1.56-.2-3.29v-.09h-.35v3.36ZM146.96,118.46c-.82-.75-1.71-1.43-2.65-2.03-1.19-.78-2.22-1.48-2.85-2.57l-.1-.17-.08.18c-.64,1.38-1.01,3.9-1.01,5.57,0,4.05,1.65,6.24,3.34,8.1l.25.29c1.22,1.4,2.61,3,3.55,5.75l.04.11.1-.05c1.75-.93,2.97-3.63,2.97-6.57,0-3.44-1.23-6.42-3.55-8.61h0ZM146.4,127.12l-.51-1.02c-1.4-2.77-2.73-5.39-3.41-8.53,3,3.22,4.97,7.26,5.65,11.6-.1-5.92-2.37-9.49-4.7-12.17,3.94,2.29,6.1,5.85,6.1,10.06,0,2.81-1.11,4.45-1.58,5.04-.94-1.89-2.14-3.64-3.56-5.2l-.11-.14c-1.48-1.87-2.88-3.64-2.88-7.32,0-.51,0-.8.05-1.46.85,3.42,2.49,6.59,4.79,9.25l.52.59-.35-.71ZM77.21,113.64c1.35-1.43,2.06-3.51,2.06-5.94.01-1.05-.09-2.09-.3-3.12l-.07-.3-.12.27c-1.23,2.65-3.64,4.36-6.13,4.36-.39,0-1.29-.07-1.75-.59.72.18,1.45-.21,1.71-.9.07-.18.1-.37.09-.56,0-1.07-.81-1.81-2.05-1.86-.9-.04-1.78.31-2.42.95-1,1.03-1.55,2.43-1.5,3.87,0,3.38,2.45,5.82,5.85,5.82,1.76,0,3.45-.72,4.65-2ZM69.53,107.34c0,1.51,1.28,2.56,3.12,2.56,2.26,0,3.75-.96,4.99-2.06-.89,2.29-2.99,3.97-5.04,3.97-1.63,0-2.71-.61-3.48-1.95l-.46-.82.28.9c.56,1.78,1.95,2.88,3.66,2.88,2.34,0,4.39-1.38,5.68-3.8-.6,3.51-2.73,5.61-5.73,5.61-1.29.03-2.53-.47-3.44-1.38-.91-.91-1.41-2.15-1.38-3.44,0-2.22,1.28-3.96,2.91-3.96h.11c-.74.09-1.28.75-1.22,1.5ZM80.58,142.03c-.01-.83-.68-1.5-1.51-1.51-.56-.04-1.09.27-1.34.78-.06-.17-.08-.36-.07-.54.09-.7.29-1.37.6-2,.3-.7.55-1.43.75-2.17.7,1.17,2.32,2.01,3.97,2.01,1.49,0,3.39-.71,4.06-2.27l.05-.11-.11-.03c-3.55-.93-4.35-4.2-5.21-7.66-.23-.98-.49-1.95-.78-2.92l-.04-.13-.11.08c-5.52,3.88-7.88,7.35-7.88,11.63,0,4.79,2.57,6.93,5.12,6.93,1.47.01,2.5-.85,2.5-2.1h0ZM78.48,128.59c-2.25,3.6-3.3,7.25-3.02,10.58l.07.87.13-.86c.47-3.02,1.74-7.3,3.94-10.42-.14,3.27,1.03,7.1,3.25,7.84l.48.16-.39-.33c-1.48-1.3-2.68-4.77-2.18-7.55.92,4.46,2.38,6.91,4.68,7.87-.71.54-1.57.85-2.47.87-.98.04-1.93-.33-2.62-1.02-.92-.94-1.39-2.49-1.4-4.6v-.39h-.21v.39c-.01,2.21-.48,4.39-1.38,6.4-.39.92-.67,1.64-.67,2.44-.04.75.28,1.47.86,1.95.3.22.65.34,1.02.35-.68.17-1.41.07-2.02-.29-1.64-.89-2.62-2.99-2.62-5.63.01-3.15,1.73-6.4,4.54-8.61h0ZM113.16,154.07c-1.18,0-2.33.35-3.31.99-.95-.64-2.07-.98-3.21-.99-2.46,0-4.12,1.17-4.12,2.91.01.6.26,1.17.69,1.59.44.41,1.02.64,1.62.62,1.05,0,1.71-.5,1.71-1.31.02-.45-.27-.85-.71-.97-.43-.12-.89.06-1.11.45-.16.28-.18.62-.06.91-.68-.08-1.17-.67-1.14-1.35,0-1.19,1.14-1.95,2.91-1.95.93-.02,1.85.23,2.65.71-.83.84-1.65,1.88-1.65,3.2-.09,1.33.91,2.49,2.24,2.58.39.03.78-.04,1.14-.2.94-.41,1.52-1.36,1.45-2.38,0-1.32-.82-2.34-1.65-3.2.84-.48,1.79-.72,2.76-.71,1.68,0,2.81.78,2.81,1.95.03.68-.46,1.27-1.14,1.35.13-.3.11-.63-.05-.91-.17-.29-.48-.48-.82-.48-.27-.02-.54.08-.73.27-.19.19-.29.46-.27.73,0,.81.65,1.31,1.71,1.31.6.02,1.18-.21,1.62-.62.44-.41.68-.99.69-1.59-.01-1.71-1.65-2.91-4.01-2.91h0ZM109.85,156.32c.94.85,1.4,1.69,1.4,2.57,0,1.11-.71,1.61-1.4,1.61s-1.41-.49-1.41-1.61c0-.88.46-1.73,1.41-2.57h0Z"/>
  <path class="st0" d="M93.39,147.25c2.99,0,5.99-1.22,8.9-3.64l.14-.12-.18-.05c-2.53-.76-4.65-1.61-6.52-2.36-3.01-1.2-5.38-2.16-7.92-2.16-3.87,0-7.13,2.51-7.13,5.46-.08,1.11.75,2.07,1.86,2.15.05,0,.1,0,.14,0,.92,0,1.56-.53,1.56-1.31.02-.46-.22-.88-.61-1.11.78,0,1.7.48,2.85,1.06,1.8.93,4.04,2.07,6.89,2.07h0ZM93,142.27c-1.98-.49-3.85-.95-5.5-.95-1.04-.01-2.08.16-3.06.51l-.75.32.81-.13c2.4-.39,4.57.22,7.08.92,1.91.58,3.85,1,5.83,1.27-.96.03-1.92.05-2.89.06-2,0-5.13-.19-7.08-1.01,3.84,2.11,7.5,2.04,10.74,1.95-1.51.69-3.15,1.06-4.82,1.08-2.39,0-4.39-1-6.15-1.88-1.28-.63-2.38-1.17-3.33-1.17-1.2,0-1.95.42-2.2,1.26,0-.02,0-.03,0-.05,0-3.15,3.65-4.62,6.12-4.62,2.26,0,5.07,1.17,7.8,2.28,1.09.45,2.14.88,3.12,1.22-1.94-.18-3.85-.54-5.72-1.07ZM76.14,127.54c1.69-1.88,3.34-4.05,3.34-8.1,0-1.66-.39-4.19-1.01-5.57l-.08-.18-.1.17c-.63,1.09-1.66,1.78-2.85,2.57-.94.6-1.83,1.27-2.65,2.03-2.34,2.19-3.54,5.17-3.54,8.61,0,2.94,1.22,5.64,2.96,6.57l.11.05.04-.11c.93-2.75,2.34-4.35,3.54-5.75l.25-.29h0ZM73.53,127.24c2.3-2.67,3.95-5.84,4.79-9.25.05.65.05.95.05,1.46,0,3.68-1.4,5.46-2.88,7.32l-.11.14c-1.43,1.56-2.63,3.31-3.57,5.2-.47-.58-1.58-2.23-1.58-5.04,0-4.22,2.16-7.77,6.1-10.06-2.34,2.68-4.6,6.24-4.7,12.17.68-4.35,2.65-8.39,5.65-11.6-.69,3.12-2.01,5.75-3.41,8.51l-.53,1.04-.35.7s.52-.59.52-.59ZM73.96,107.21l.24-.12c3.69-1.9,6.28-6.31,6.28-10.73,0-3.06-1.17-5.03-2.13-6.63-.64-1.06-1.17-1.97-1.17-2.92-.02-.19.01-.38.09-.56l.13-.27-.27.13c-2.95,1.43-4.78,4.71-4.78,8.58,0,1.87.52,3.71,1.03,5.49.51,1.78.98,3.48.98,5.21,0,.53-.1,1.06-.29,1.56l-.12.28h0ZM74.65,93.44c0,2.16.62,5.56,1.61,8.87-.41-2.94-.61-5.9-.6-8.87,0-1.44.13-2.87.39-4.29.44,2.03.74,4.1.9,6.17.14,1.36.3,2.96.39,4.57l.05.78.15-.76c.24-1.52.34-3.06.3-4.59-.14-2-.42-3.98-.85-5.94,1.59,2.73,2.45,4.7,2.45,7,0,3.51-1.38,6.49-4.11,8.91,0-1.84-.51-3.62-1.01-5.35s-1-3.44-1-5.22c-.06-2.07.53-4.11,1.69-5.83-.25,1.5-.38,3.02-.37,4.54h0s0,0,0,0ZM84.19,73.46c0,2.05.87,4.8,2.8,6.3l.02.02h.03c2.61.39,4.64,2.07,4.83,3.33l.03.18.14-.12c.88-.79,1.4-1.91,1.44-3.09.01-1.44-.95-2.7-2.34-3.07,3.46-4.04,3.73-9.27,3.73-10.79,0-6.1-3.18-8.84-6.33-8.84-2.5,0-4.32,1.63-4.32,3.87-.02,1.62,1.27,2.95,2.89,2.97.04,0,.08,0,.12,0,.49.02.98-.06,1.44-.23-.52,1.03-1.14,2.01-1.83,2.93-1.31,1.85-2.67,3.75-2.67,6.54ZM89.94,77.47c1.69.39,2.63,1.31,2.63,2.61.02.56-.14,1.11-.44,1.58-.71-1.06-1.61-1.88-3.51-2.36.98-.32,2.05-.13,2.86.51l.33.26-.17-.39c-.54-1.17-1.79-1.73-3.37-1.5,4.05-7.44,5.32-12.97,3.77-16.42l-.33-.72.13.78c.5,2.94.44,7.36-4.44,15.61-.2-3.86.78-5.9,1.72-7.88.75-1.42,1.27-2.94,1.56-4.52-.46,1.56-1.36,2.71-2.05,3.86-1.24,2.08-2.51,4.23-2.34,8.57-.74-1.21-1.13-2.61-1.13-4.03,0-2.49,1.36-4.47,2.69-6.39,1.17-1.67,2.23-3.24,2.23-4.96,0-.95-.58-1.61-1.41-1.61-.72,0-1.31.58-1.31,1.31,0,.36.15.7.41.95.28.24.63.37.99.37-.47.22-.98.32-1.5.29-1.14-.03-2.04-.98-2.01-2.12,0-.01,0-.03,0-.04,0-1.8,1.3-2.96,3.31-2.96,2.61,0,5.42,2.48,5.42,7.93,0,4.07-1.47,8.01-4.12,11.1l-.11.13s.17.04.17.04ZM70.84,88.01c2.08,0,3.83-1.24,5.53-2.44,1.5-1.07,2.92-2.07,4.41-2.07h.05l.03-.04c1.56-1.77,2.64-4.71,2.64-7.3,0-4.96-2.96-7.98-5.82-8.03h-.14l.04.13c.16.55.24,1.11.25,1.68-.03.89-.24,1.77-.64,2.58-.51,1.08-.79,2.25-.81,3.45-1.06-.74-2.32-1.14-3.62-1.17-.73-.04-1.46.07-2.15.31l-.05.02v.05c-.33,2.52.88,5,3.08,6.28-.61.28-1.15.68-1.59,1.17-.15-.82-.87-1.34-1.88-1.34-1.76.04-3.16,1.49-3.12,3.25,0,.02,0,.04,0,.07,0,1.95,1.63,3.42,3.81,3.42ZM69.97,82.26c-.22.19-.34.46-.33.75-.02.64.49,1.18,1.13,1.2.03,0,.05,0,.08,0,.69,0,1.08-.39,1.56-.85.83-.92,1.96-1.51,3.19-1.66l.36-.05-.33-.14c-3.2-1.33-4.25-3.8-4.16-5.69.4-.09.8-.14,1.21-.13,1.86,0,3.45.9,4.74,2.67l.39.53-.21-.63c-.19-.67-.28-1.38-.25-2.08.01-1.24.29-2.47.8-3.6.36-.74.56-1.55.6-2.37,0-.35-.03-.69-.11-1.03.09.02.2.06.29.09l.09.03c2.26.92,3.55,3.43,3.55,6.88-.04,1.75-.49,3.48-1.3,5.03.53-4.72.12-7.94-1.28-10.11l-.35-.55.17.63c.88,3.21,1.06,6.57.52,9.86-.59-2.12-1.05-4.27-1.38-6.44l-.12-.84-.08.85c-.23,2.49.32,5.28.65,6.7-1.66-1.89-4.09-4.01-6.29-4.63l-.71-.2.63.39c2.31,1.42,4.44,3.29,5.65,4.95-1.17-.63-2.31-1.34-3.4-2.02-.39-.25-.78-.5-1.17-.74l-.53-.32.39.48c1.24,1.33,2.69,2.44,4.29,3.3-.87.02-2.46.13-3.57.82-.39.23-.71.46-1.04.68-1.74,1.17-2.9,1.92-4.06,1.03l-.68-.52.54.67c1.37,1.67,3.23.48,5.38-.89l.23-.14c.99-.57,2.12-.85,3.26-.81-.85.46-1.66.97-2.45,1.54-1.61,1.1-3.28,2.25-4.99,2.25s-2.81-1.05-2.81-2.51c0-1.21.78-2.45,2.09-2.46-.06.03-.12.06-.18.11h0ZM122.34,93.96c.75,0,1.24-.29,1.87-.83.76-.74,1.79-1.13,2.85-1.08,1.7,0,3.41.93,3.41,3.01s-1.43,3.34-4.94,4.12l-.98.22v1.41l1.33-.22c2.71-.68,6.3-2,6.3-5.62,0-2.66-2.1-4.52-5.12-4.52-2.85,0-5.52,2.07-5.52,3.01,0,.26.36.51.8.51ZM122.73,92.65c0-.1.06-.19.15-.23.13-.05.27,0,.33.13s0,.27-.13.33c-.03.01-.07.02-.1.02-.1,0-.19-.07-.22-.17,0-.03-.01-.07,0-.1l-.02.02h0ZM123.97,102.77l-1.01-.2c-1.22-.24-1.42-.39-1.42-.6s.11-.35.72-.5l.08-.02v-1.37l-.13.04c-1.58.44-2.28,1.03-2.28,1.91s.92,1.4,2.99,1.75l1,.2c2.64.55,3.07,1.39,3.3,1.84.11.2.19.39.44.39s.3-.48.3-.71c-.01-.21-.07-.42-.16-.6-.23-.39-.9-1.52-3.83-2.12h0Z"/>
  <path class="st0" d="M124.05,104.8v-.39l-1.21-.24v.65c-1.36.3-2.21.6-2.21,1.17v.1h5.73v-.1c0-.57-.88-.88-2.31-1.19ZM90.42,102.97c2.89,0,3.9-1.08,3.9-2.01v-.1h-.73l-2.55-7.95c.89-.2,1.79-.31,2.71-.33.29.71,1.11,1.04,1.81.75.34-.14.61-.41.75-.75.91.02,1.82.12,2.71.32l-2.55,7.96h-.73v.11c0,.93,1.03,2.01,3.9,2.01s3.72-1.04,3.72-2.01v-.1h-.6l-2.34-7.57.36.12.42-1.25-.1-.03c-1.57-.5-3.19-.8-4.83-.91-.2-.5-.69-.82-1.23-.81-.53,0-1.02.32-1.25.8-1.63.1-3.23.41-4.78.91l-.1.03.42,1.25.36-.12-2.34,7.57h-.63v.11c0,.96.98,2,3.72,2h0ZM88.19,100.86l1.82-6.35v6.35h-1.82ZM90.82,100.86v-6.37l1.87,6.37h-1.87ZM97.38,100.86l1.87-6.37v6.37h-1.87ZM100.06,100.86v-6.37l1.87,6.37h-1.87ZM122.85,102.14l1.21.24v-3.95c2.45-.53,4.82-1.22,4.82-3.2v-.11h-10.85v.1c0,1.95,2.37,2.65,4.82,3.2,0,0,0,3.72,0,3.72ZM125.51,80.63c-.9.71-1.81.9-3.51.9-2.86,0-6.02-1.71-7.43-1.71-1.2,0-1.7.71-1.91,2.41,1.51,0,5.93,2.21,9.04,2.21,2.3,0,3.61-.8,3.81-3.82ZM114.82,82.04c-.42-.09-.7-.48-.65-.9,0-.55.3-.85.7-.8.55.1.7.55.7,1.06.03.2-.05.4-.2.53-.15.13-.36.18-.55.12h0ZM116.58,82.59l-.25-.75v.65l-.5-.15v-1.71l.5.15c.5.15.7.35.7.65,0,.18-.12.35-.3.39l.39.95-.54-.19ZM117.79,82.98l-.5-.15v-1.74l.55.2c.5.12.84.59.81,1.1,0,.54-.46.69-.86.59,0,0,0-.01,0-.01ZM119.84,83.49l-1.01-.25v-1.66l.96.25v.3l-.45-.15v.45l.39.05v.3l-.39-.1v.39l.5.1v.32h0ZM121.45,83.74l-.6-.05-.45-1.31.05,1.25-.3-.05v-1.66l.65.1.39,1.25-.05-1.2h.3v1.66s0,0,0,0ZM99,83.24c0-.2-.1-.3-.25-.3v.6c.15,0,.25-.11.25-.3Z"/>
  <path class="st0" d="M117.78,81.54v1.2c.2.05.35-.05.35-.45,0-.55-.15-.7-.35-.75ZM103.77,80.98l-.1.91.25-.1-.15-.81Z"/>
  <path class="st0" d="M98.1,84.45c3.12,0,7.53-2.31,9.03-2.31-.2-1.71-.7-2.41-1.91-2.41-1.46,0-4.62,1.81-7.43,1.81-1.25,0-2.61-.2-3.51-.9.19,3.01,1.5,3.82,3.81,3.82ZM104.12,80.58l.39,1.56v-1.66l.5-.1c.5-.1.81.1.81.6s-.25.81-.81,1.01l-.5.15-.5.15-.05-.25-.35.15-.05.3-.39.15.35-1.86s.6-.2.6-.2ZM102.12,81.24l1.17-.35v.35l-.3.05v1.4l-.5.15v-1.4l-.35.15v-.35s-.01,0-.01,0ZM100.91,81.59l.55-.15c.25-.1.52.02.62.27.02.06.03.12.03.18,0,.17-.1.32-.25.39l.39.6-.55.15-.3-.55v.65l-.5.15s.01-1.7.01-1.7ZM99.7,81.89l.96-.2v.3l-.45.05v.39l.45-.1v.33l-.45.05v.45l.5-.1v.3l-1,.2v-1.67h0ZM98.25,82.09l.55-.05c.39-.05.65.05.65.35,0,.2-.15.37-.35.39.2,0,.39.05.39.35s-.2.5-.61.55l-.65.05v-1.64h.01ZM97.45,82.09h.5v1.61h-.5v-1.61h0ZM96.34,81.99l.5.05v1.36h.39v.3c-.31,0-.62-.08-.9-.2,0,0,.01-1.51.01-1.51ZM116.32,81.03v.65c.15.05.25-.05.25-.25s-.05-.34-.25-.4Z"/>
  <path class="st0" d="M101.61,81.94c0-.15-.05-.3-.2-.25v.6c.16-.05.2-.15.2-.35h0ZM99,82.49c0-.13-.09-.24-.22-.25-.01,0-.02,0-.03,0v.5c.1,0,.2-.06.24-.15.01-.03.02-.06.01-.1h0ZM114.87,80.53c-.2-.05-.2.25-.2.65,0,.3,0,.61.2.66.2.05.2-.25.2-.61s0-.65-.2-.7ZM107.74,79.93c.07.72.24,1.43.5,2.11,1.09-.27,2.22-.27,3.31,0,.26-.68.43-1.39.5-2.11,0-.8-.6-1.1-2.21-1.1-1.51,0-2.11.32-2.11,1.1ZM110.25,79.54h.3l-.39,1.06v.55h-.5v-.55l-.39-1.06h.49l.25.75.24-.75ZM105.33,81.1c0-.5-.1-.5-.3-.5v1.17c.2-.13.3-.23.3-.67h0ZM97.35,152.72c0,.3-.35.39-.76.3l.1.55c.51.18,1.06-.08,1.25-.58.04-.1.06-.21.06-.32,0-.9-.95-1.05-.95-1.56,0-.39.35-.45.75-.35l-.1-.55c-.7-.1-1.25.3-1.25.9,0,.93.9,1.01.9,1.61h0ZM101.26,151.51l.55-.15.1.6.5-.15-.5-3.06-.85.25-.55,3.36.65-.2.1-.65h0ZM101.42,150.01l.05-.65.1-.05.05.65.1.9-.39.1.09-.95h0ZM99.21,151.57c.21,0,.39-.17.39-.39,0-.03,0-.05,0-.08-.03-.15-.15-.27-.31-.31-.15-.03-.31.03-.4.16-.04.06-.07.14-.07.22,0,.11.03.21.11.28.07.07.18.11.28.11h0ZM84.75,157.99c-.23.1-.46.18-.7.25v-1.06l.6-.1v-.5l-.6.2v-.9l.7-.1v-.5c-.39.1-.8.2-1.31.3v3.21c.44-.07.88-.17,1.31-.3v-.5ZM95.14,153.72l.65-.25.1.6.5-.2-.7-3.01-.8.3-.39,3.51.6-.25.04-.7ZM95.29,152.27v-.75l.1-.05.1.76.2.75-.5.2.1-.9h0ZM80.89,156.74l.2,1.21h-.1l-.2-.9-.4-1.2-.5-.05v2.91l.5.1v-.95l-.2-1.2h.1l.2.9.4,1.35.5.05v-3.11h-.5v.9h0ZM85.55,156.94l.2-.05.1.39.45.71.6-.2-.85-1.1c.31-.22.5-.57.5-.96,0-.5-.39-.85-1.1-.65l-.39.1v3.21l.5-.15v-1.29h-.02ZM85.55,155.48c.3-.1.5.1.5.39,0,.3-.21.55-.5.6v-.99h0ZM104.12,151.41v-.45c-.5.2-.95-.1-.95-1,0-.8.25-1.2.85-1.2v-.5c-.78-.1-1.4.6-1.4,1.71,0,1.51.8,1.76,1.5,1.45ZM87.76,156.29c.21,0,.39-.17.39-.38,0-.11-.04-.21-.12-.28-.11-.11-.28-.15-.43-.08-.15.06-.24.2-.24.36,0,.21.17.39.39.39h0,0ZM94.29,154.23l-.6.3v-2.86l-.5.2v3.36l1.1-.45v-.55h0ZM91.58,155.93c.5,0,1.1-.5,1.1-1.51v-2.34l-.6.25v2.41c0,.39-.2.6-.39.6-.1,0-.2-.1-.2-.3v-2.41l-.5.2v2.41c-.01.38.19.69.59.69ZM89.57,156.03l.6-.25.1.7.5-.2-.5-3.12-.9.39-.5,3.46.6-.25.1-.74h0ZM89.77,153.87l.1-.05.1.75.1.7-.5.2.2-1.6h0ZM82.08,158.94l.6-.05v-2.66c.1,0,.55-.05.55-.05v-.55c-.55.11-1.1.18-1.66.2v.49l.5-.05v2.67h0ZM130.28,155.43c.16,0,.3-.09.36-.24.06-.15.03-.31-.09-.42-.11-.11-.28-.15-.43-.09-.15.06-.24.2-.24.36,0,.11.03.21.11.28.07.08.18.12.28.11h0ZM129.12,155.73l-.8-.25v-1l.7.25v-.5l-.7-.25v-.85l.8.35v-.5l-1.31-.6v3.41l1.31.5v-.55h0ZM132.64,157.74l.5-3.06-.5-.2-.3,1.81-.05.85-.15-.05v-.85l-.25-2.06-.55-.25.4,3.47.9.35h0ZM126.41,153.92h.2l.05.3.39,1.21.7.3-.75-1.95c.25-.19.4-.49.39-.8,0-.5-.2-.9-1-1.21l-.5-.2v3.41l.5.2.02-1.26h0ZM126.41,152.32c.31.06.53.34.5.65,0,.39-.3.55-.5.45v-1.1ZM134.65,157.84l-.8-.2v-.95l.6.2v-.5l-.6-.15v-.85l.8.3v-.5l-1.31-.45v3.22l1.31.45v-.55ZM137.66,159.1c.5,0,.85-.39.85-1.1v-2.16h-.55v2.26c0,.3-.2.39-.3.39-.2,0-.3-.15-.3-.5v-2.21l-.6-.1v2.31c0,.81.4,1.12.9,1.12h0ZM139.41,157.79l-.15-1.2h.1l.4,1.71.41-.1.35-1.81.1-.05-.15,1.16v1l.5-.25v-2.71l-.6.1-.3,1.3-.05.7h-.1l-.05-.65-.4-1.2-.55.05v3.06l.5-.05v-1.05h0ZM123.4,153.92l.2-.7.6.25v.76l1.4.6v-.65l-.8-.3v-.9l.6.25v-.5l-.6-.25v-.8l.8.35v-.55l-1.75-.7-.9,2.96.45.2h0ZM123.95,151.97l.15-.65.1.05v1.61l-.45-.2.2-.8h0ZM135.45,157.54h.2l.05.25.35.96.6.15-.6-1.51c.25-.19.4-.49.39-.8.04-.57-.34-1.09-.9-1.2l-.6-.15v3.26l.5.1v-1.05s.01,0,.01,0ZM135.45,155.93c.14,0,.27.06.37.17.09.1.14.24.13.38,0,.39-.2.6-.5.6v-1.15h0ZM78.87,158.29c.19.11.39.19.6.25v-2.86l-.6-.15v2.76ZM109.85,150.21l-.71.05v-1h.61v-.5l-.61.05v-.85l.71-.05v-.5l-1.2.05v3.31l1.2-.05v-.5h0ZM110.85,149.66l-.1-1.41h.1l.2,1.01.2.8h.4l.2-.8.2-.9h.1l-.1,1.4v1.06l.5.05v-3.26l-.6-.05-.4,1.2-.1.8h-.05l-.05-.8-.4-1.3-.6-.05v3.31h.5v-1.05h0ZM104.98,150.51l.55-.15.1.7.6-.1-.6-3.12-.9.2-.39,3.31.55-.15.09-.69h0ZM105.13,148.35h.1l.2,1.51-.39.1s.09-1.61.09-1.61ZM108.24,149.16c0-1.2-.55-1.61-1.35-1.51l-.35.05v3.22l.39-.05c.71-.1,1.31-.5,1.31-1.71h0ZM107.03,148.14c.39-.1.71.3.71,1.11,0,.6-.3,1.1-.71,1.1v-2.21h0ZM113.46,147.75l-.5-.1v3.26l.5.05v-3.22h0ZM122.1,153.47c.22.07.46.03.64-.12.18-.14.28-.36.27-.59v-2.34l-.5-.15v2.41c0,.2-.1.35-.3.3-.2-.05-.39-.3-.39-.71v-2.28l-.5-.2v2.36c-.01.8.29,1.15.79,1.3ZM119.99,152.67h.1l.9.3v-.6l-.39-.1-.3.1c.39-.2.5-.6.5-1.21,0-1.2-.3-1.91-1-1.91-.61,0-.9.7-.9,1.61,0,1.1.29,1.8,1.1,1.8h0ZM119.84,149.81c.35,0,.45.55.45,1.17,0,.71-.1,1.21-.39,1.21-.39,0-.5-.6-.5-1.21-.01-.72.11-1.17.44-1.17ZM117.48,150.66c.22,0,.39-.17.39-.39s-.17-.39-.39-.39-.39.17-.39.39h0c0,.05,0,.1.02.15.06.15.21.24.37.24ZM114.43,150.48l.55.1v.65l1.31.3v-.5l-.8-.15v-.96l.7.15v-.5l-.7-.1v-.8l.8.2v-.5c-.39-.1-1.2-.3-1.61-.35l-1,3.01.55.1s.2-.65.2-.65ZM114.82,149.12l.15-.6h.05l-.05.6v.96l-.45-.05.3-.9ZM97,75.3c0,.9-.71,1.61-1.81,1.61-.9,0-1.5-.6-1.61-1.61.5.39,1.61.1,1.81.9.1-.8,1.11-.8,1.51-1.41.08.15.12.33.1.5h0Z"/>
  <path class="st0" d="M97.6,76.9c0,1.11-1.01,1.71-2.31,1.71-1,0-1.61-.39-1.71-1.61.6.6,2.01.2,2.21,1.1,0-1,1.41-1.1,1.71-1.7.1.1.1.3.1.5h0ZM95.19,75.2c-.72.04-1.33-.49-1.41-1.21-.02-.17.02-.35.1-.5.39.5,1.31.3,1.41,1.3-.1-1,1.1-1.2,1.3-1.4.05,1-.5,1.81-1.4,1.81Z"/>
  <path class="st0" d="M98.5,78.51c0,1.31-1.41,2.11-2.61,2.11-.85.04-1.59-.56-1.71-1.4.15.15.5.1,1.51.1.39,0,.9,0,1.1.5v-.39c0-1,1.41-1.31,1.51-1.91.1.32.17.65.2.99h0ZM95.19,73.59c-.44-.19-.71-.63-.7-1.1.07-.69.39-1.34.9-1.81,0,.8.39,1.31.39,1.91-.02.41-.24.79-.59,1ZM117.37,54.11c2.52,0,5.64,2.42,6.03,9.05-.9,0-1.2-.71-1.31-1.81-.6-4.22-2.81-6.24-4.42-6.24-3.12,0-.6,4.92-3.82,5.62,0,.8-.2,1.81-.6,1.81-.5,0-.7-.9-.9-1.61,0,1.1-.3,2.01-.7,2.01-.3,0-.6-.9-.8-1.71,0,1.01-.5,2.01-1,2.01-.39,0-.9-1-.9-2.01-.2.8-.5,1.71-.81,1.71-.39,0-.7-.9-.7-2.01-.2.7-.39,1.61-.9,1.61-.39,0-.6-1.01-.6-1.81-3.21-.7-.7-5.62-3.82-5.62-1.61,0-3.81,2.01-4.42,6.24-.1,1.1-.39,1.81-1.31,1.81.39-6.63,3.51-9.04,6.03-9.04,3.71,0,1.8,4.62,3.51,4.62.7,0,1.31-.8,1.91-1.81-.08.19-.11.4-.1.6,0,.8.8,1.31,2.11,1.31,1.4,0,2.21-.5,2.21-1.31.02-.21-.02-.41-.1-.6.6,1,1.11,1.8,1.91,1.8,1.61-.01-.2-4.63,3.52-4.63h0ZM97.28,72.79c.5-.2.9-.7.9-2.11.44,2.13,1.08,4.22,1.91,6.24.5,1.31,1,2.11,1,2.51.03.22-.1.43-.31.5-1.49-1.82-2.69-4.53-3.51-7.14Z"/>
  <path class="st0" d="M99.9,61.15c-.15,1.2-.7,1.7-1.5,1.7.1-1.59.47-3.15,1.1-4.62.71-1.5,1.91-2.41,2.51-2.41.2,0,.39.1.39.3s-.3.3-.71.7c-.79.8-1.54,2.31-1.79,4.32Z"/>
  <path class="st0" d="M98.4,63.65c.5,0,1-.3,1.31-1.51-.08.73-.12,1.47-.1,2.21v2.01c0,.7-.1,1.61-1,1.71-.16-1.47-.23-2.94-.2-4.42ZM98.7,68.88c.6,0,1.11-.5,1.11-1.71.5,4.52,1.71,7.02,2.31,8.74.27.68.44,1.39.5,2.11.03.27-.13.52-.39.6-1.8-2.98-3-6.29-3.53-9.74ZM100.4,63.56c.5,0,1.01-.3,1.31-1.61-.1.9-.2,1.61-.2,2.11,0,.71.1,1.61.1,2.11,0,.8-.1,1.61-1.01,1.81-.2-1.03-.3-2.07-.3-3.12-.02-.43.01-.87.1-1.3Z"/>
  <path class="st0" d="M101.81,61.15c-.2,1.2-.5,1.61-1.31,1.61.2-2.61.7-4.02,1.61-5.33.2-.3.5-.6.8-.6.16,0,.29.14.3.3,0,.2-.1.3-.2.5-.7.9-1.01,2.42-1.2,3.52ZM100.61,68.67c.6-.1,1.01-.6,1.1-1.81.3,2.91,1.31,5.82,2.01,7.73.24.61.38,1.25.39,1.91,0,.27-.1.53-.3.71-1.49-2.11-2.8-6.13-3.2-8.54ZM102.32,62.75c.6,0,1.1-.5,1.31-1.41-.08.67-.11,1.34-.1,2.01,0,.9.1,1.71.1,2.21,0,.9-.6,1.5-1.2,1.5-.08-.87-.12-1.74-.1-2.61,0,0,0-1.71,0-1.71ZM103.22,59.04c.2,0,.39.3.39,1,0,.9-.3,1.91-1.21,1.91.31-2.51.51-2.91.82-2.91ZM102.51,67.97c.5-.1,1.11-.39,1.21-1.61.2,2.91,1,5.42,1.51,7.23.26.64.43,1.32.5,2.01,0,.24-.11.46-.3.6-1.41-2.12-2.51-5.82-2.91-8.23ZM105.32,62.45c0,1.31.1,2.31.1,2.91,0,.9-.5,1.51-.9,1.51-.19-1.2-.29-2.41-.3-3.62,0-1.51.2-1.81.5-1.81s.6.3.6,1ZM105.73,79.22l.1-.71.6-1-1.11.9-.3.5h-.2l.1-.7.81-.7-1.01.3-.2.3h-.3l.39-.6,2.01-.8.3-2.21c.1.1.2.1.39.1.3,0,.39,0,.5-.1l-.5,2.21,1.31.8.2.8h-.2l-.5-.5-.9-.3-.9,1.1-.39.6s-.19,0-.19,0ZM104.52,67.57c.39,0,.9-.39,1.01-1.41.1,1,.5,2.73.5,3.41s-.3,1.31-.71,1.31c-.4-.9-.6-2.31-.8-3.31ZM106.93,71.58c0,.39.2.8.6.8.3,0,.6-.3.8-.7.39.39.61,1.1.61,2.41-.55-.14-.92-.64-.9-1.21-.1.8-.39,1.21-.71,1.21-.2,0-.3-.3-.3-.7v-.7c-.1.39-.7.9-1.21.7.3-.9.71-1.61,1.11-1.81Z"/>
  <path class="st0" d="M107.74,69.28c1.1,0,1.4.39,1.4,1.91v.6c-.5,0-.8-.5-.9-1.01-.1.7-.39,1.01-.6,1.01-.3,0-.39-.2-.39-.71v-.6c-.39.7-.8.7-1.11.7.39-1.5.79-1.9,1.6-1.9ZM109.85,64.15c.6,0,1-.6,1-1.4.2.8.6,1.1.9,1.1.39,0,.8-.7.8-1.51.1.71.5,1.31,1,1.31,0,1.11-.2,1.71-.7,1.71-.3,0-.39-.5-.6-1.31,0,.81-.39,1.61-.81,1.61-.3,0-.5-.3-.7-1.2-.1.9-.5,1.6-.9,1.6-.3,0-.8-.7-.8-1.6-.2.9-.39,1.2-.71,1.2-.39,0-.8-.78-.8-1.61-.2.81-.3,1.31-.6,1.31-.5,0-.71-.6-.71-1.71.39,0,.9-.6,1-1.31,0,.81.39,1.51.8,1.51.3,0,.7-.3.9-1.1,0,.8.4,1.4.9,1.4h0Z"/>
  <path class="st0" d="M109.85,67.17c.5,0,1-.7,1-1.51.2.81.39,1.21.8,1.21s.7-.71.7-1.61c.49.71.77,1.55.81,2.41,0,.7-.2.9-.39.9-.3,0-.7-.39-.8-1.31,0,1.1-.3,1.61-.7,1.61-.2,0-.5-.39-.7-1.11,0,.9-.3,1.51-.7,1.51-.3,0-.6-.6-.6-1.51-.2.71-.5,1.11-.7,1.11-.39,0-.71-.5-.71-1.61-.1.9-.5,1.31-.8,1.31-.2,0-.39-.2-.39-.9.03-.86.31-1.7.8-2.41,0,.9.3,1.61.7,1.61s.6-.39.81-1.21c-.03.81.47,1.51.88,1.51ZM107.38,83.48c0-.39.36-.75,1.17-1.17-.18.34-.42.65-.71.9.6-.39.5-.3.8-.5-.39.9-.75,1.01-.95,1.01s-.32-.09-.32-.24h0ZM108.09,84.39c0-.39.3-.9,1-1.61-.2.61-.3.8-.5,1.41.3-.5.5-.71.7-1-.1,1.41-.55,1.66-.85,1.66-.2,0-.35-.15-.35-.45ZM109.85,86.55c-.39,0-.71-.2-.71-.9.02-.64.15-1.26.39-1.86.17.45.27.92.3,1.4.03-.48.13-.95.3-1.4.23.59.36,1.22.39,1.86.01.7-.28.9-.68.9ZM110.9,55.47c.02.32.07.64.15.96,0,.39-.6.7-1.2.7-.39,0-1.01-.3-1.01-.6s.35-1.01.35-1.61c0-.14-.03-.27-.1-.39.21.14.45.21.71.2.27.02.53-.1.7-.3-1.21.35-1.66-.35-1.76-.96-.45.2-.9.05-1-.3-.23.08-.45.18-.65.3-.2-.85.1-1.05,1.17-1.21-.13-.14-.2-.32-.2-.5,0-.5.55-.75,1.81-.75.55,0,.9.2.8.45,0,.2-.1.2-.1.3.56.18.91.72.85,1.31-.02.99-.52,1.19-.52,2.4ZM109.85,52.61c.2,0,.35-.1.35-.3s-.15-.3-.35-.3-.36.1-.36.3.15.3.36.3ZM111.25,84.84c-.3,0-.75-.25-.85-1.66.2.3.39.5.71,1-.2-.6-.3-.8-.5-1.41.7.7,1,1.21,1,1.61,0,.3-.15.45-.35.45ZM112.56,70.48v.6c0,.5-.1.71-.39.71-.2,0-.5-.3-.71-1.01.05.49-.29.94-.78,1.01v-.6c0-1.5.3-1.91,1.4-1.91.8,0,1.21.39,1.61,1.91-.33,0-.73,0-1.13-.7Z"/>
  <path class="st0" d="M112.75,72.69v.7c0,.39-.1.7-.3.7-.3,0-.6-.39-.7-1.2-.06.54-.41,1-.9,1.2,0-1.31.1-2.01.5-2.31.13.38.5.62.9.6.38,0,.69-.29.7-.67,0-.01,0-.02,0-.03.39.3.7.8.9,1.71-.4.2-.99-.3-1.11-.7h0ZM113.86,79.22l-.39-.6-.9-1.1-.9.3-.5.5h-.2l.2-.8,1.31-.8-.5-2.21c.1.1.2.1.5.1.2,0,.3,0,.39-.1l.2,2.21,2.11.8.3.6h-.2l-.2-.3-1-.3.8.7.1.7h-.2l-.3-.5-1.11-.9.6,1,.1.71h-.2ZM112,83.73c-.2,0-.55-.1-.95-1,.3.2.2.1.8.5-.29-.26-.53-.56-.71-.9.8.39,1.17.75,1.17,1.17-.01.14-.11.24-.32.24ZM115.26,67.57c-.2,1-.39,2.41-.8,3.31-.39,0-.71-.6-.71-1.31s.39-2.41.5-3.41c0,1,.6,1.41,1,1.41ZM117.28,67.97c-.39,2.41-1.51,6.12-2.91,8.23-.2-.14-.31-.36-.3-.6.07-.69.24-1.37.5-2.01.5-1.81,1.31-4.32,1.5-7.23.1,1.21.71,1.5,1.21,1.61ZM114.46,62.45c0-.7.3-1,.6-1s.39.3.39,1.81c.03,1.21-.04,2.42-.2,3.62-.39,0-.9-.6-.9-1.51.01-.6.11-1.61.11-2.91ZM119.18,68.67c-.39,2.41-1.71,6.43-3.21,8.54-.2-.18-.31-.44-.3-.71.01-.65.15-1.3.39-1.91.71-1.91,1.71-4.82,2.01-7.73.11,1.21.51,1.71,1.11,1.81ZM116.57,59.04c.3,0,.5.39.8,2.91-.9,0-1.21-1-1.21-1.91,0-.7.1-1,.4-1ZM117.47,62.75v1.71c.01.87-.02,1.74-.1,2.61-.6,0-1.21-.6-1.21-1.5,0-.5.1-1.31.1-2.21.01-.67-.02-1.34-.1-2.01.21.9.7,1.41,1.31,1.41ZM117.98,61.15c-.2-1.11-.5-2.61-1.2-3.51-.1-.2-.2-.3-.2-.5.01-.16.14-.29.3-.3.3,0,.6.3.81.6.9,1.31,1.4,2.73,1.61,5.33-.8,0-1.11-.41-1.31-1.61ZM121.09,68.88c-.52,3.45-1.71,6.76-3.51,9.75-.28-.06-.49-.31-.5-.6,0-.5.3-1.21.6-2.11.6-1.71,1.81-4.22,2.31-8.73,0,1.2.5,1.7,1.1,1.7h0ZM119.89,61.15c-.25-2.01-1-3.51-1.81-4.32-.39-.39-.71-.5-.71-.7s.2-.31.39-.31c.6,0,1.71.9,2.51,2.41.64,1.46,1.01,3.03,1.11,4.62-.8,0-1.35-.5-1.5-1.7Z"/>
  <path class="st0" d="M119.38,63.56c.09.43.12.87.1,1.31,0,1.05-.11,2.09-.3,3.12-.9-.2-1.01-1.01-1.01-1.81,0-.5.1-1.4.1-2.11,0-.5-.1-1.2-.2-2.11.3,1.3.8,1.6,1.3,1.6ZM122.5,72.79c-.8,2.61-2.01,5.32-3.51,7.13-.21-.08-.33-.29-.3-.5,0-.39.5-1.2,1-2.51.78-2.03,1.41-4.12,1.91-6.24,0,1.42.3,1.92.9,2.12h0ZM121.39,63.65c.03,1.48-.04,2.95-.2,4.42-.9-.1-1.01-1.01-1.01-1.71v-2.01c.01-.74-.02-1.48-.1-2.21.19,1.2.8,1.51,1.31,1.5ZM121.29,78.51c.03-.34.1-.68.2-1,.1.6,1.51.9,1.51,1.91v.39c.2-.5.7-.5,1.1-.5,1.01,0,1.36.05,1.5-.1-.12.84-.86,1.45-1.7,1.4-1.21.01-2.61-.79-2.61-2.1ZM123.5,64.05v1.41c.02,2.2-.25,4.39-.8,6.53-.5-.2-.9-.7-.9-1.81-.02-.34.02-.68.1-1,.2-1.46.3-2.94.3-4.42.01-.77-.02-1.54-.1-2.31.3,1.31.92,1.61,1.4,1.61Z"/>
  <path class="st0" d="M122.19,76.9c-.02-.17,0-.35.1-.5.3.6,1.71.7,1.71,1.7.2-.9,1.61-.5,2.21-1.1-.1,1.2-.7,1.61-1.71,1.61-1.31,0-2.31-.6-2.31-1.71Z"/>
  <path class="st0" d="M122.79,75.3c-.02-.17.02-.35.1-.5.39.61,1.4.61,1.4,1.41.3-.8,1.41-.5,1.91-.9-.1,1.01-.7,1.61-1.61,1.61-1.11,0-1.81-.7-1.81-1.61h0Z"/>
  <path class="st0" d="M124.6,75.2c-.9,0-1.46-.8-1.41-1.81.2.2,1.41.39,1.31,1.4.1-1,1.01-.8,1.41-1.3v.5c0,.33-.15.65-.4.88-.25.23-.57.35-.91.33Z"/>
  <path class="st0" d="M124.6,73.59c-.39-.18-.63-.58-.6-1,0-.6.39-1.11.39-1.91.51.47.83,1.12.9,1.81.02.47-.26.91-.69,1.1ZM96.28,64.11c.5,0,1.1-.3,1.41-1.61-.08.77-.12,1.54-.1,2.31,0,1.48.1,2.95.3,4.42.08.33.12.67.1,1.01,0,1.1-.39,1.61-.9,1.81-.58-2.13-.88-4.32-.9-6.53-.02-.47.01-.94.1-1.41Z"/>
</svg>